<?xml version="1.0" ?>
<!DOCTYPE svg  PUBLIC '-//W3C//DTD SVG 1.1//EN'  'http://www.w3.org/Graphics/SVG/1.1/DTD/svg11.dtd'>
<!-- Uploaded to: SVG Repo, www.svgrepo.com, Generator: SVG Repo Mixer Tools -->
<svg fill="#000000" width="800px" height="800px" viewBox="0 0 512 512" version="1.1" xml:space="preserve" xmlns="http://www.w3.org/2000/svg" xmlns:xlink="http://www.w3.org/1999/xlink">
<g id="_x31_002_x2C__australian_x2C__country_x2C__location_x2C__map_x2C__travel">
<path d="M426.148,224.14c-1.704-2.771-3.03-4.926-3.774-6.158c-0.689-1.142-1.28-2.14-1.801-3.02   c-1.788-3.02-2.545-4.273-3.346-4.99c-0.852-0.763-2.519-1.541-5.544-2.953c-2.088-0.974-4.947-2.309-8.7-4.188   c-1.973-0.989-3.521-1.71-4.764-2.291c-5.761-2.688-6.989-3.73-8.136-9.66c-0.235-1.213-0.526-2.723-1.029-4.753   c-1.261-5.08-2.06-9.918-2.832-14.597c-1.961-11.864-3.437-19.262-8.835-21.762c-6.588-3.05-10.845-9.896-10.845-17.438v-22.028   c-0.632,0.005-1.337,0.028-2.12,0.052c-0.944,0.029-1.982,0.063-3.14,0.077c-0.775,1.672-1.562,5.484-2.059,7.893   c-0.319,1.548-0.649,3.148-1.016,4.618c-0.886,3.555-1.604,7.153-2.297,10.633c-2.021,10.134-3.93,19.707-9.659,28.065   c-3.555,5.183-9.479,8.278-15.853,8.278c-2.97,0-5.952-0.692-8.622-2.002l-27.644-13.56c-9.464-4.642-13.493-15.81-9.173-25.426   c5.582-12.423,5.006-16.457,4.165-17.756c-1.043-1.613-4.99-2.43-11.729-2.43c-4.323,0-9.487,0.308-15.466,0.665   c-7.732,0.461-16.449,0.982-26.296,1.028c-1.304,2.228-3.025,8.111-3.901,11.106c-0.478,1.633-0.929,3.176-1.352,4.456   c-0.374,1.118-0.818,2.617-1.288,4.206c-2.925,9.893-5.451,18.436-11.644,18.436c-12.708,0-20.676-4.376-26.494-7.572   c-3.071-1.687-5.496-3.019-7.354-3.019c-3.549,0-8.913,6.028-16.398,18.431c-1.073,1.758-1.993,3.299-2.931,4.869   c-0.741,1.239-1.491,2.496-2.329,3.88c-7.001,11.61-13.899,23.066-21.271,35.496l-0.11,0.185   c-5.116,8.558-5.937,9.584-13.655,12.148c-1.321,0.439-2.817,0.936-4.696,1.614c-3.667,1.32-7.483,2.464-11.173,3.572   c-3.527,1.058-7.175,2.152-10.762,3.416c-1.836,0.62-3.583,1.201-5.296,1.771c-17.764,5.913-31.794,10.583-35.817,20.29   c-3.153,7.607-0.625,19.425,7.727,36.129c0.814,1.623,2.305,4.545,4.21,8.277c26.036,51,27.983,56.484,27.983,59.031   c0,7.471-0.352,13.33-0.634,18.035c-0.295,4.91-0.629,10.475,0.231,11.387c1.266,1.346,9.661,1.346,17.779,1.346h1.569   c2.136-1.26,7.536-7.135,11.165-11.082c9.403-10.229,13.339-14.094,17.406-14.094c7.651,0,13.654,0.354,18.479,0.639   c2.978,0.176,5.55,0.326,7.548,0.326c3.489,0,4.185-0.49,4.315-0.643c0.349-0.402,0.971-1.83,1.206-6.859   c0.489-10.438,9.023-18.613,19.429-18.613h58.075c4.158,0,7.137,3.318,10.292,6.83c2.587,2.879,5.519,6.143,9.158,7.947   c3.068,1.533,6.048,2.988,8.997,4.426c1.432,0.699,2.855,1.393,4.276,2.092l0.526,0.266c2.146,1.086,4.293,2.172,6.462,3.281   c5.847,3.049,6.174,8.5,6.368,11.758c0.211,3.523,0.22,3.66,4.755,3.66c1.577,0,3.484-0.146,5.67-0.434   c0.716-0.096,1.445-0.146,2.157-0.146c7.189,0,16.631,4.771,20.79,27.492c0.88,4.807,5.066,8.295,9.955,8.295l5.765-0.002   c3.071,0,6.145,0.002,9.217,0.012c1.192,0.006,2.288,0.053,3.348,0.1c0.922,0.039,1.807,0.08,2.649,0.08   c2.293,0,3.023-0.336,3.472-0.699c3.684-3.002,5.156-5.004,6.232-6.467c3.151-4.283,5.381-5.15,13.249-5.15   c0.571,0,1.183,0.004,1.841,0.01c0.818,0.008,1.996,0.039,3.338,0.074c2.071,0.055,4.418,0.117,6.526,0.117   c2.604,0,3.636-0.102,3.986-0.15c1.845-0.945,5.665-7.104,7.515-10.084c0.869-1.398,1.688-2.721,2.469-3.891   c1.613-2.422,3.184-4.762,4.709-7.037c22.345-33.32,34.688-51.727,34.77-97.84C452.311,266.665,432.67,234.74,426.148,224.14z" id="XMLID_517_"/>
</g>
<g id="Layer_1"/>
</svg>